<svg xmlns="http://www.w3.org/2000/svg" width="24" height="20.087" viewBox="0 0 24 20.087">
  <g id="Icon_feather-users" data-name="Icon feather-users" transform="translate(-0.5 -3.413)">
    <path id="Path_22" data-name="Path 22" d="M17.5,28.5v-2a4,4,0,0,0-4-4h-8a4,4,0,0,0-4,4v2" transform="translate(0 -6)" fill="none" stroke="#000" stroke-linecap="round" stroke-linejoin="round" stroke-width="2"/>
    <path id="Path_23" data-name="Path 23" d="M15.5,8.5a4,4,0,1,1-4-4A4,4,0,0,1,15.5,8.5Z" transform="translate(-2)" fill="none" stroke="#000" stroke-linecap="round" stroke-linejoin="round" stroke-width="2"/>
    <path id="Path_24" data-name="Path 24" d="M33,28.565v-2a4,4,0,0,0-3-3.87" transform="translate(-9.5 -6.065)" fill="none" stroke="#000" stroke-linecap="round" stroke-linejoin="round" stroke-width="2"/>
    <path id="Path_25" data-name="Path 25" d="M24,4.7a4,4,0,0,1,0,7.75" transform="translate(-7.5 -0.065)" fill="none" stroke="#000" stroke-linecap="round" stroke-linejoin="round" stroke-width="2"/>
  </g>
</svg>
