<svg xmlns="http://www.w3.org/2000/svg" width="19.002" height="19.034" viewBox="0 0 19.002 19.034">
  <path id="Icon_feather-phone-call" data-name="Icon feather-phone-call" d="M13.633,4.736a4.044,4.044,0,0,1,3.2,3.2M13.633,1.5a7.28,7.28,0,0,1,6.431,6.423m-.809,6.455V16.8a1.618,1.618,0,0,1-1.763,1.618,16.008,16.008,0,0,1-6.981-2.483,15.773,15.773,0,0,1-4.853-4.853A16.008,16.008,0,0,1,3.174,4.072a1.618,1.618,0,0,1,1.61-1.763H7.211A1.618,1.618,0,0,1,8.828,3.7a10.386,10.386,0,0,0,.566,2.273A1.618,1.618,0,0,1,9.031,7.68L8,8.707a12.942,12.942,0,0,0,4.853,4.853l1.027-1.027a1.618,1.618,0,0,1,1.707-.364,10.386,10.386,0,0,0,2.273.566A1.618,1.618,0,0,1,19.255,14.377Z" transform="translate(-2.167 -0.396)" fill="rgba(0,0,0,0)" stroke="#000" stroke-linecap="round" stroke-linejoin="round" stroke-width="2"/>
</svg>
