<svg id="Group_44" data-name="Group 44" xmlns="http://www.w3.org/2000/svg" xmlns:xlink="http://www.w3.org/1999/xlink" width="17.963" height="21.465" viewBox="0 0 17.963 21.465">
  <defs>
    <clipPath id="clip-path">
      <rect id="Rectangle_50" data-name="Rectangle 50" width="17.963" height="21.465" fill="none"/>
    </clipPath>
  </defs>
  <g id="Group_43" data-name="Group 43" clip-path="url(#clip-path)">
    <path id="Path_46" data-name="Path 46" d="M15.333,360.406a4.427,4.427,0,0,0,.448-.009,2.467,2.467,0,0,0,.972-.288,2.366,2.366,0,0,0,1.124-1.444,5.8,5.8,0,0,0,.078-1.45v-3.544a2.343,2.343,0,0,0-1.825-2.321,3.087,3.087,0,0,0-1.474.043,2.359,2.359,0,0,0-1.4,1.175A2.529,2.529,0,0,0,13,353.7v4.25a2.483,2.483,0,0,0,.134.89,2.35,2.35,0,0,0,1.219,1.34,2.435,2.435,0,0,0,.983.225.649.649,0,0,0,0-1.3,1.761,1.761,0,0,1-.238-.017l.173.024a1.737,1.737,0,0,1-.418-.117l.156.065a1.863,1.863,0,0,1-.275-.147.4.4,0,0,1-.069-.05s.143.119.054.041c-.039-.035-.078-.067-.115-.1s-.065-.067-.1-.1-.071-.119.03.043c-.015-.024-.032-.045-.05-.069a1.678,1.678,0,0,1-.147-.275l.065.156a1.737,1.737,0,0,1-.117-.418c.009.058.015.115.024.173a4.816,4.816,0,0,1-.017-.613v-3.581a5.305,5.305,0,0,1,.017-.719c-.009.058-.015.115-.024.173a1.737,1.737,0,0,1,.117-.418l-.065.156a1.861,1.861,0,0,1,.147-.275.4.4,0,0,1,.05-.069s-.119.143-.041.054c.035-.039.067-.078.1-.115s.067-.065.1-.1.119-.071-.043.03c.024-.015.045-.032.069-.05a1.68,1.68,0,0,1,.275-.147l-.156.065a1.737,1.737,0,0,1,.418-.117l-.173.024a2.976,2.976,0,0,1,.76,0l-.173-.024a1.737,1.737,0,0,1,.418.117l-.156-.065a1.863,1.863,0,0,1,.275.147.4.4,0,0,1,.069.05s-.143-.119-.054-.041c.039.035.078.067.115.1s.065.067.1.1.071.119-.03-.043c.015.024.032.045.05.069a1.68,1.68,0,0,1,.147.275l-.065-.156a1.737,1.737,0,0,1,.117.418c-.009-.058-.015-.115-.024-.173a4.816,4.816,0,0,1,.017.613v3.581a5.3,5.3,0,0,1-.017.719c.009-.058.015-.115.024-.173a1.736,1.736,0,0,1-.117.418l.065-.156a1.861,1.861,0,0,1-.147.275.4.4,0,0,1-.05.069s.119-.143.041-.054c-.035.039-.067.078-.1.115s-.067.065-.1.1-.119.071.043-.03c-.024.015-.045.033-.069.05a1.68,1.68,0,0,1-.275.147L16.1,359a1.737,1.737,0,0,1-.418.117l.173-.024a3.811,3.811,0,0,1-.522.017.649.649,0,0,0,0,1.3Zm-13,0a4.427,4.427,0,0,0,.448-.009,2.467,2.467,0,0,0,.972-.288,2.366,2.366,0,0,0,1.124-1.444,5.8,5.8,0,0,0,.078-1.45v-3.544a2.343,2.343,0,0,0-1.825-2.321,3.087,3.087,0,0,0-1.474.043,2.359,2.359,0,0,0-1.4,1.175A2.529,2.529,0,0,0,0,353.7v4.25a2.483,2.483,0,0,0,.134.89,2.35,2.35,0,0,0,1.219,1.34,2.435,2.435,0,0,0,.983.225.649.649,0,0,0,0-1.3,1.761,1.761,0,0,1-.238-.017l.173.024A1.737,1.737,0,0,1,1.853,359l.156.065a1.863,1.863,0,0,1-.275-.147.4.4,0,0,1-.069-.05s.143.119.054.041c-.039-.035-.078-.067-.115-.1s-.065-.067-.1-.1-.071-.119.03.043c-.015-.024-.032-.045-.05-.069a1.678,1.678,0,0,1-.147-.275l.065.156a1.737,1.737,0,0,1-.117-.418c.009.058.015.115.024.173A4.816,4.816,0,0,1,1.3,357.7v-3.581a5.305,5.305,0,0,1,.017-.719c-.009.058-.015.115-.024.173a1.737,1.737,0,0,1,.117-.418l-.065.156a1.861,1.861,0,0,1,.147-.275.4.4,0,0,1,.05-.069s-.119.143-.041.054c.035-.039.067-.078.1-.115s.067-.065.1-.1.119-.071-.043.03c.024-.015.045-.032.069-.05a1.68,1.68,0,0,1,.275-.147l-.156.065a1.737,1.737,0,0,1,.418-.117l-.173.024a2.976,2.976,0,0,1,.76,0l-.173-.024a1.737,1.737,0,0,1,.418.117l-.156-.065a1.863,1.863,0,0,1,.275.147.4.4,0,0,1,.069.05s-.143-.119-.054-.041c.039.035.078.067.115.1s.065.067.1.1.071.119-.03-.043c.015.024.032.045.05.069a1.68,1.68,0,0,1,.147.275l-.065-.156a1.737,1.737,0,0,1,.117.418c-.009-.058-.015-.115-.024-.173a4.816,4.816,0,0,1,.017.613v3.581a5.3,5.3,0,0,1-.017.719c.009-.058.015-.115.024-.173a1.737,1.737,0,0,1-.117.418l.065-.156a1.861,1.861,0,0,1-.147.275.4.4,0,0,1-.05.069s.119-.143.041-.054c-.035.039-.067.078-.1.115s-.067.065-.1.1-.119.071.043-.03c-.024.015-.045.033-.069.05a1.68,1.68,0,0,1-.275.147L3.1,359a1.737,1.737,0,0,1-.418.117l.173-.024a3.811,3.811,0,0,1-.522.017.649.649,0,0,0,0,1.3" transform="translate(0 -343.678)"/>
    <path id="Path_47" data-name="Path 47" d="M1.3,14.25V9.256a10.422,10.422,0,0,1,.076-1.4c-.009.058-.015.115-.024.173a8.316,8.316,0,0,1,.58-2.113l-.065.156a8.482,8.482,0,0,1,.58-1.124c.108-.175.221-.344.342-.511.03-.043.063-.084.093-.126l.035-.045c.069-.093-.1.132-.032.041s.13-.165.2-.242a8.382,8.382,0,0,1,.868-.885c.076-.065.152-.13.229-.195.037-.03.074-.061.11-.089s.13-.1-.041.03l.069-.052c.167-.126.34-.247.517-.359A8.427,8.427,0,0,1,6.079,1.86l-.156.065a8.316,8.316,0,0,1,2.113-.58l-.173.024a8.342,8.342,0,0,1,2.228,0l-.173-.024a8.316,8.316,0,0,1,2.113.58l-.156-.065A8.482,8.482,0,0,1,13,2.441c.175.108.344.221.511.342.043.03.084.063.126.093l.045.035c.093.069-.132-.1-.041-.032s.165.13.242.2a8.382,8.382,0,0,1,.885.868c.065.076.13.152.195.229.03.037.061.074.089.11s.1.13-.03-.041l.052.069c.126.167.247.34.359.517a8.427,8.427,0,0,1,.656,1.245l-.065-.156a8.316,8.316,0,0,1,.58,2.113c-.009-.058-.015-.115-.024-.173a10.932,10.932,0,0,1,.076,1.457v5.477a9.688,9.688,0,0,1-.037,1.253c.009-.058.015-.115.024-.173a4.1,4.1,0,0,1-.268.985l.065-.156a4.029,4.029,0,0,1-.366.68c-.035.052-.071.1-.106.152-.08.113.1-.117.024-.03-.017.022-.035.045-.054.067-.082.1-.167.193-.258.284s-.186.178-.284.258c-.022.017-.043.037-.067.054-.089.071.128-.1.041-.032-.054.039-.108.078-.162.115a4.029,4.029,0,0,1-.68.366l.156-.065a4.073,4.073,0,0,1-.985.268l.173-.024a7.854,7.854,0,0,1-1.059.037H11.16a.649.649,0,0,0,0,1.3H12.8c.206,0,.413,0,.619,0a4.536,4.536,0,0,0,1.606-.327,4.682,4.682,0,0,0,2.427-2.21,4.907,4.907,0,0,0,.5-2.221V8.976a8.869,8.869,0,0,0-.524-3.011,9.221,9.221,0,0,0-1.6-2.775A9,9,0,0,0,13.5,1.222,8.85,8.85,0,0,0,10.573.139,9.2,9.2,0,0,0,7.252.163,8.826,8.826,0,0,0,4.36,1.28a8.931,8.931,0,0,0-2.306,2A9.242,9.242,0,0,0,.481,6.086,8.96,8.96,0,0,0,0,8.981V14.25a.657.657,0,0,0,.649.649A.662.662,0,0,0,1.3,14.25Z" transform="translate(0 0)"/>
    <path id="Path_48" data-name="Path 48" d="M298.775,810.022a1.2,1.2,0,0,1-.013.178c.009-.058.015-.115.024-.173a1.49,1.49,0,0,1-.091.333l.065-.156a1.528,1.528,0,0,1-.113.212.3.3,0,0,1-.039.058s.108-.132.05-.065c-.028.032-.056.063-.084.093s-.054.052-.082.076-.1.05.054-.041c-.015.009-.03.022-.045.032a1.5,1.5,0,0,1-.225.121l.156-.065a1.494,1.494,0,0,1-.333.091l.173-.024a7.243,7.243,0,0,1-.894.013,8.033,8.033,0,0,1-.914-.011l.173.024a1.569,1.569,0,0,1-.329-.087l.156.065a1.369,1.369,0,0,1-.236-.126c-.061-.041-.071-.089.024.022-.028-.032-.067-.058-.1-.089a.471.471,0,0,1-.089-.1c.02.026.041.052.061.08l-.039-.054a1.367,1.367,0,0,1-.126-.236l.065.156a1.418,1.418,0,0,1-.087-.329c.009.058.015.115.024.173a1.482,1.482,0,0,1,0-.353c-.009.058-.015.115-.024.173a1.5,1.5,0,0,1,.091-.333l-.065.156a1.528,1.528,0,0,1,.113-.212.306.306,0,0,1,.039-.058s-.108.132-.05.065c.028-.032.056-.063.084-.093s.054-.052.082-.076.1-.05-.054.041c.015-.009.03-.022.045-.032a1.5,1.5,0,0,1,.225-.121l-.156.065a1.49,1.49,0,0,1,.333-.091l-.173.024a7.243,7.243,0,0,1,.894-.013,8.033,8.033,0,0,1,.914.011l-.173-.024a1.569,1.569,0,0,1,.329.087l-.156-.065a1.375,1.375,0,0,1,.236.126c.061.041.071.089-.024-.022.028.032.067.058.1.089a.471.471,0,0,1,.089.1c-.019-.026-.041-.052-.061-.08l.039.054a1.371,1.371,0,0,1,.126.236l-.065-.156a1.416,1.416,0,0,1,.087.329c-.009-.058-.015-.115-.024-.173a1.2,1.2,0,0,1,.013.175.649.649,0,1,0,1.3,0,2,2,0,0,0-1.093-1.773,2.1,2.1,0,0,0-.9-.214h-1.245a2.331,2.331,0,0,0-1.169.253,2.015,2.015,0,0,0-1.007,1.554,1.991,1.991,0,0,0,.907,1.851,2.2,2.2,0,0,0,1.26.314h1.26a2.074,2.074,0,0,0,.948-.24,2.011,2.011,0,0,0,1.043-1.747.656.656,0,0,0-.649-.649A.667.667,0,0,0,298.775,810.022Z" transform="translate(-288.267 -790.542)"/>
  </g>
</svg>
