<svg xmlns="http://www.w3.org/2000/svg" xmlns:xlink="http://www.w3.org/1999/xlink" width="110.395" height="46.545" viewBox="0 0 110.395 46.545">
  <defs>
    <clipPath id="clip-path">
      <rect id="Rectangle_2" data-name="Rectangle 2" width="110.394" height="46.545" fill="none"/>
    </clipPath>
  </defs>
  <g id="Group_3" data-name="Group 3" transform="translate(0)">
    <path id="Path_1" data-name="Path 1" d="M8.754,96.947v5.619H3.176V96.947H0v14.577H3.176v-5.945H8.754v5.945h3.176V96.947Z" transform="translate(0 -80.991)" fill="#2a2a2a"/>
    <path id="Path_2" data-name="Path 2" d="M88.337,96.947H92l5.457,14.577h-3.5l-1.12-3.257H87.5l-1.12,3.257h-3.5Zm3.481,8.429-1.059-3.054-.489-1.791h-.2l-.489,1.791-1.059,3.054Z" transform="translate(-69.24 -80.991)" fill="#2a2a2a"/>
    <path id="Path_3" data-name="Path 3" d="M181.843,96.947h3.176v11.564h6.108v3.013h-9.284Z" transform="translate(-151.914 -80.991)" fill="#2a2a2a"/>
    <path id="Path_4" data-name="Path 4" d="M250.126,96.947H253.3v11.564h6.108v3.013h-9.284Z" transform="translate(-208.959 -80.991)" fill="#2a2a2a"/>
    <g id="Group_2" data-name="Group 2" transform="translate(0)">
      <g id="Group_1" data-name="Group 1" clip-path="url(#clip-path)">
        <path id="Path_5" data-name="Path 5" d="M319.9,110.2a7.8,7.8,0,0,1-3.054-.59,7.517,7.517,0,0,1-2.433-1.619,7.434,7.434,0,0,1-1.608-2.412,8.007,8.007,0,0,1,0-5.986,7.447,7.447,0,0,1,1.608-2.413,7.527,7.527,0,0,1,2.433-1.618,8.195,8.195,0,0,1,6.108,0,7.528,7.528,0,0,1,2.433,1.618A7.453,7.453,0,0,1,327,99.589a8.01,8.01,0,0,1,0,5.986,7.44,7.44,0,0,1-1.608,2.412,7.518,7.518,0,0,1-2.433,1.619,7.8,7.8,0,0,1-3.054.59m0-3.013a4.748,4.748,0,0,0,1.761-.326,4.17,4.17,0,0,0,1.435-.937,4.38,4.38,0,0,0,.957-1.456,5.294,5.294,0,0,0,0-3.766,4.384,4.384,0,0,0-.957-1.456,4.175,4.175,0,0,0-1.435-.936,4.951,4.951,0,0,0-3.532,0,4.2,4.2,0,0,0-1.425.936,4.379,4.379,0,0,0-.957,1.456,5.294,5.294,0,0,0,0,3.766,4.375,4.375,0,0,0,.957,1.456,4.191,4.191,0,0,0,1.425.937,4.722,4.722,0,0,0,1.771.326" transform="translate(-260.837 -79.338)" fill="#2a2a2a"/>
        <path id="Path_6" data-name="Path 6" d="M506.591,106.435a5.965,5.965,0,0,0,2.067-.346,4.986,4.986,0,0,0,1.639-.967,4.346,4.346,0,0,0,1.079-1.5,5.029,5.029,0,0,0,0-3.868,4.349,4.349,0,0,0-1.079-1.5,5,5,0,0,0-1.639-.967,5.977,5.977,0,0,0-2.067-.346h-5.212v14.577h3.176v-5.09Zm-2.036-6.474h2.138a2.022,2.022,0,0,1,1.486.489,1.822,1.822,0,0,1,0,2.484,2.021,2.021,0,0,1-1.486.489h-2.138Z" transform="translate(-418.859 -80.991)" fill="#2ed54a"/>
        <path id="Path_7" data-name="Path 7" d="M578.221,106.435a5.965,5.965,0,0,0,2.066-.346,4.985,4.985,0,0,0,1.639-.967,4.345,4.345,0,0,0,1.079-1.5,5.029,5.029,0,0,0,0-3.868,4.349,4.349,0,0,0-1.079-1.5,5,5,0,0,0-1.639-.967,5.977,5.977,0,0,0-2.066-.346h-5.212v14.577h3.176v-5.09Zm-2.036-6.474h2.138a2.022,2.022,0,0,1,1.486.489,1.822,1.822,0,0,1,0,2.484,2.021,2.021,0,0,1-1.486.489h-2.138Z" transform="translate(-478.7 -80.991)" fill="#2ed54a"/>
        <path id="Path_8" data-name="Path 8" d="M405.12,0a23.3,23.3,0,0,0-21.353,14.03,10.568,10.568,0,0,1,2.569,2.434,20,20,0,1,1,6.831,22.81h-7.942l.9-2.583,1.388-3.987,1.889-5.428,1.018-2.891,1.059-3.054.488-1.792h.2l.489,1.792,1.059,3.054,1.018,2.891,1.12,3.258h3.5L393.9,15.956h-3.665l-4.476,12.259L384,33.032l-1.4,3.828-1.956,5.276h10.868A23.266,23.266,0,1,0,405.12,0" transform="translate(-317.998)" fill="#2ed54a"/>
      </g>
    </g>
  </g>
</svg>
