<svg xmlns="http://www.w3.org/2000/svg" width="9.092" height="18.496" viewBox="0 0 9.092 18.496">
  <g id="pin" transform="translate(-5 -0.751)">
    <path id="Path_51" data-name="Path 51" d="M9.546,9.843A4.546,4.546,0,1,1,14.092,5.3,4.551,4.551,0,0,1,9.546,9.843Zm0-7.576A3.031,3.031,0,1,0,12.576,5.3,3.034,3.034,0,0,0,9.546,2.266Z"/>
    <path id="Path_52" data-name="Path 52" d="M12.046,6.157a.757.757,0,0,0-1.485-.3L9.03,13.511,7.5,5.86a.757.757,0,1,0-1.485.3l2.276,10.18a.758.758,0,0,0,1.479,0Z" transform="translate(0.515 2.319)"/>
  </g>
</svg>
